# xmcd CD database file
#
# Track frame offsets:
#	150
#	15854
#	31922
#	46176
#	59408
#	75894
#	90242
#	104504
#	118025
#	134225
#	146200
#	160243
#	173442
#	182734
#	192417
#	206455
#	221074
#	235028
#
# Disc length: 3306 seconds
#
# Revision: 0
# Processed by: cddbd v1.5.2PL0 Copyright (c) Steve Scherf et al.
# Submitted via: CDex 1.79
#
DISCID=ed0ce812
DTITLE=Benny Goodman - Jazz Giants CD3
DYEAR=2004
DGENRE=Jazz
TTITLE0=Blue Skies
TTITLE1=I Can't Give You Anything But Love, Baby
TTITLE2=I'm Getting Sentimental Over You
TTITLE3=It Had To Be You
TTITLE4=Blue Interlude
TTITLE5=I Had To Do It
TTITLE6=If Dreams Come True
TTITLE7=I Was Lucky
TTITLE8=In A Sentimental Mood
TTITLE9=Afraid To Dream
TTITLE10=I've Got A Date With A Dream
TTITLE11=Bob White
TTITLE12=I Know That You Know
TTITLE13=I've Found a New Baby
TTITLE14=A Little Kiss At Twilight
TTITLE15=Blue Moon
TTITLE16=I Must See Annie Tonight
TTITLE17=Is That The Way To Treat A Sweetheart?
EXTD=YEAR: 2004
EXTT0=
EXTT1=
EXTT2=
EXTT3=
EXTT4=
EXTT5=
EXTT6=
EXTT7=
EXTT8=
EXTT9=
EXTT10=
EXTT11=
EXTT12=
EXTT13=
EXTT14=
EXTT15=
EXTT16=
EXTT17=
PLAYORDER=
